<svg width="240" height="240" viewBox="0 0 240 240" fill="none" xmlns="http://www.w3.org/2000/svg">
  <defs>
    <linearGradient id="forestBg" x1="28" y1="28" x2="208" y2="208" gradientUnits="userSpaceOnUse">
      <stop stop-color="#EAF7F1"/>
      <stop offset="1" stop-color="#BFE8D0"/>
    </linearGradient>
    <linearGradient id="forestAccent" x1="85" y1="52" x2="165" y2="196" gradientUnits="userSpaceOnUse">
      <stop stop-color="#4AA37D"/>
      <stop offset="1" stop-color="#22664C"/>
    </linearGradient>
  </defs>
  <rect width="240" height="240" rx="120" fill="url(#forestBg)"/>
  <circle cx="120" cy="88" r="42" fill="#FAFFFD"/>
  <path d="M120 136C83.5492 136 54 165.549 54 202V216H186V202C186 165.549 156.451 136 120 136Z" fill="#FAFFFD"/>
  <path d="M91 170C106.464 158.893 132.956 157.976 149.9 168.3" stroke="#89C5A7" stroke-width="10" stroke-linecap="round"/>
  <path d="M86 166C86 140.595 106.595 120 132 120C157.405 120 178 140.595 178 166V186H86V166Z" fill="#F6FFFB"/>
  <path d="M116 46L145 93H87L116 46Z" fill="url(#forestAccent)"/>
  <path d="M149 70L179 119H119L149 70Z" fill="#2F7C5A"/>
  <path d="M93 82L122 131H64L93 82Z" fill="#4AA37D"/>
  <rect x="112" y="129" width="16" height="44" rx="8" fill="#7A583B"/>
  <path d="M153 72C156.314 72 159 69.3137 159 66C159 62.6863 156.314 60 153 60C149.686 60 147 62.6863 147 66C147 69.3137 149.686 72 153 72Z" fill="#FFFFFF" fill-opacity="0.8"/>
  <path d="M70 122C73.3137 122 76 119.314 76 116C76 112.686 73.3137 110 70 110C66.6863 110 64 112.686 64 116C64 119.314 66.6863 122 70 122Z" fill="#FFFFFF" fill-opacity="0.7"/>
</svg>
